%TF.GenerationSoftware,KiCad,Pcbnew,8.0.6*%
%TF.CreationDate,2024-11-16T20:49:17+00:00*%
%TF.ProjectId,LED_strip_DVD_xbox,4c45445f-7374-4726-9970-5f4456445f78,rev?*%
%TF.SameCoordinates,Original*%
%TF.FileFunction,Copper,L2,Bot*%
%TF.FilePolarity,Positive*%
%FSLAX46Y46*%
G04 Gerber Fmt 4.6, Leading zero omitted, Abs format (unit mm)*
G04 Created by KiCad (PCBNEW 8.0.6) date 2024-11-16 20:49:17*
%MOMM*%
%LPD*%
G01*
G04 APERTURE LIST*
G04 Aperture macros list*
%AMRoundRect*
0 Rectangle with rounded corners*
0 $1 Rounding radius*
0 $2 $3 $4 $5 $6 $7 $8 $9 X,Y pos of 4 corners*
0 Add a 4 corners polygon primitive as box body*
4,1,4,$2,$3,$4,$5,$6,$7,$8,$9,$2,$3,0*
0 Add four circle primitives for the rounded corners*
1,1,$1+$1,$2,$3*
1,1,$1+$1,$4,$5*
1,1,$1+$1,$6,$7*
1,1,$1+$1,$8,$9*
0 Add four rect primitives between the rounded corners*
20,1,$1+$1,$2,$3,$4,$5,0*
20,1,$1+$1,$4,$5,$6,$7,0*
20,1,$1+$1,$6,$7,$8,$9,0*
20,1,$1+$1,$8,$9,$2,$3,0*%
G04 Aperture macros list end*
%TA.AperFunction,ComponentPad*%
%ADD10C,3.800000*%
%TD*%
%TA.AperFunction,ComponentPad*%
%ADD11RoundRect,0.250000X-0.350000X-0.350000X0.350000X-0.350000X0.350000X0.350000X-0.350000X0.350000X0*%
%TD*%
%TA.AperFunction,ComponentPad*%
%ADD12C,1.200000*%
%TD*%
%TA.AperFunction,ComponentPad*%
%ADD13C,1.620000*%
%TD*%
G04 APERTURE END LIST*
D10*
%TO.P,REF\u002A\u002A,1*%
%TO.N,GND*%
X134500000Y-70000000D03*
%TD*%
D11*
%TO.P,J1,1,Pin_1*%
%TO.N,unconnected-(J1-Pin_1-Pad1)*%
X147000000Y-76000000D03*
D12*
%TO.P,J1,2,Pin_2*%
%TO.N,+5V*%
X147000000Y-78000000D03*
%TO.P,J1,3,Pin_3*%
%TO.N,unconnected-(J1-Pin_3-Pad3)*%
X149000000Y-76000000D03*
%TO.P,J1,4,Pin_4*%
%TO.N,unconnected-(J1-Pin_4-Pad4)*%
X149000000Y-78000000D03*
%TO.P,J1,5,Pin_5*%
%TO.N,unconnected-(J1-Pin_5-Pad5)*%
X151000000Y-76000000D03*
%TO.P,J1,6,Pin_6*%
%TO.N,unconnected-(J1-Pin_6-Pad6)*%
X151000000Y-78000000D03*
%TO.P,J1,7,Pin_7*%
%TO.N,unconnected-(J1-Pin_7-Pad7)*%
X153000000Y-76000000D03*
%TO.P,J1,8,Pin_8*%
%TO.N,unconnected-(J1-Pin_8-Pad8)*%
X153000000Y-78000000D03*
%TO.P,J1,9,Pin_9*%
%TO.N,unconnected-(J1-Pin_9-Pad9)*%
X155000000Y-76000000D03*
%TO.P,J1,10,Pin_10*%
%TO.N,unconnected-(J1-Pin_10-Pad10)*%
X155000000Y-78000000D03*
%TO.P,J1,11,Pin_11*%
%TO.N,GND*%
X157000000Y-76000000D03*
%TO.P,J1,12,Pin_12*%
X157000000Y-78000000D03*
%TO.P,J1,13,Pin_13*%
%TO.N,unconnected-(J1-Pin_13-Pad13)*%
X159000000Y-76000000D03*
%TO.P,J1,14*%
%TO.N,N/C*%
X159000000Y-78000000D03*
%TD*%
D13*
%TO.P,RV1,1,1*%
%TO.N,+5V*%
X141500000Y-80000000D03*
%TO.P,RV1,2,2*%
%TO.N,Net-(R1-Pad2)*%
X139000000Y-75000000D03*
%TO.P,RV1,3,3*%
%TO.N,unconnected-(RV1-Pad3)*%
X136500000Y-80000000D03*
%TD*%
D10*
%TO.P,REF\u002A\u002A,2*%
%TO.N,GND*%
X161500000Y-70000000D03*
%TD*%
%TA.AperFunction,Conductor*%
%TO.N,GND*%
G36*
X156625000Y-76049370D02*
G01*
X156650556Y-76144745D01*
X156699925Y-76230255D01*
X156769745Y-76300075D01*
X156855255Y-76349444D01*
X156950630Y-76375000D01*
X156978553Y-76375000D01*
X156419311Y-76934240D01*
X156425283Y-76985709D01*
X156425283Y-77014289D01*
X156419311Y-77065758D01*
X156978554Y-77625000D01*
X156950630Y-77625000D01*
X156855255Y-77650556D01*
X156769745Y-77699925D01*
X156699925Y-77769745D01*
X156650556Y-77855255D01*
X156625000Y-77950630D01*
X156625000Y-77978553D01*
X156062532Y-77416086D01*
X156011352Y-77419645D01*
X155943108Y-77404658D01*
X155903797Y-77370671D01*
X155816762Y-77255418D01*
X155666042Y-77118019D01*
X155654723Y-77111011D01*
X155645704Y-77105426D01*
X155599069Y-77053401D01*
X155587964Y-76984419D01*
X155615916Y-76920385D01*
X155645703Y-76894573D01*
X155666041Y-76881981D01*
X155741402Y-76813280D01*
X155816763Y-76744580D01*
X155816764Y-76744579D01*
X155873589Y-76669331D01*
X155903794Y-76629333D01*
X155959903Y-76587696D01*
X156011338Y-76580357D01*
X156062533Y-76583911D01*
X156625000Y-76021445D01*
X156625000Y-76049370D01*
G37*
%TD.AperFunction*%
%TA.AperFunction,Conductor*%
G36*
X157937465Y-76583912D02*
G01*
X157988683Y-76580363D01*
X158056923Y-76595365D01*
X158096210Y-76629339D01*
X158126415Y-76669336D01*
X158183234Y-76744577D01*
X158183237Y-76744580D01*
X158233477Y-76790379D01*
X158333959Y-76881981D01*
X158354294Y-76894572D01*
X158354296Y-76894573D01*
X158400931Y-76946601D01*
X158412035Y-77015583D01*
X158384082Y-77079617D01*
X158354296Y-77105427D01*
X158333957Y-77118020D01*
X158183236Y-77255419D01*
X158096206Y-77370665D01*
X158040097Y-77412300D01*
X157988669Y-77419640D01*
X157937465Y-77416087D01*
X157375000Y-77978552D01*
X157375000Y-77950630D01*
X157349444Y-77855255D01*
X157300075Y-77769745D01*
X157230255Y-77699925D01*
X157144745Y-77650556D01*
X157049370Y-77625000D01*
X157021447Y-77625000D01*
X157580686Y-77065759D01*
X157574715Y-77014289D01*
X157574715Y-76985708D01*
X157580686Y-76934240D01*
X157021448Y-76375000D01*
X157049370Y-76375000D01*
X157144745Y-76349444D01*
X157230255Y-76300075D01*
X157300075Y-76230255D01*
X157349444Y-76144745D01*
X157375000Y-76049370D01*
X157375000Y-76021447D01*
X157937465Y-76583912D01*
G37*
%TD.AperFunction*%
%TA.AperFunction,Conductor*%
G36*
X159929890Y-68020185D02*
G01*
X159975645Y-68072989D01*
X159986187Y-68132634D01*
X160917262Y-69063709D01*
X160783398Y-69160967D01*
X160660967Y-69283398D01*
X160563709Y-69417262D01*
X159635311Y-68488864D01*
X159554520Y-68586525D01*
X159554518Y-68586528D01*
X159392707Y-68841502D01*
X159392704Y-68841508D01*
X159264127Y-69114747D01*
X159264125Y-69114752D01*
X159170805Y-69401959D01*
X159114216Y-69698609D01*
X159114215Y-69698616D01*
X159095255Y-69999994D01*
X159095255Y-70000005D01*
X159114215Y-70301383D01*
X159114216Y-70301390D01*
X159170805Y-70598040D01*
X159264125Y-70885247D01*
X159264127Y-70885252D01*
X159392704Y-71158491D01*
X159392707Y-71158497D01*
X159554516Y-71413469D01*
X159635311Y-71511133D01*
X160563708Y-70582736D01*
X160660967Y-70716602D01*
X160783398Y-70839033D01*
X160917262Y-70936290D01*
X159986564Y-71866987D01*
X159986565Y-71866989D01*
X160211461Y-72030385D01*
X160211479Y-72030397D01*
X160476109Y-72175878D01*
X160476117Y-72175882D01*
X160756889Y-72287047D01*
X160756892Y-72287048D01*
X161049399Y-72362150D01*
X161348995Y-72399999D01*
X161349007Y-72400000D01*
X161650993Y-72400000D01*
X161651004Y-72399999D01*
X161950600Y-72362150D01*
X162243107Y-72287048D01*
X162243110Y-72287047D01*
X162523882Y-72175882D01*
X162523890Y-72175878D01*
X162788520Y-72030397D01*
X162788530Y-72030390D01*
X163013433Y-71866987D01*
X163013434Y-71866987D01*
X162082737Y-70936290D01*
X162216602Y-70839033D01*
X162339033Y-70716602D01*
X162436290Y-70582737D01*
X163364687Y-71511134D01*
X163369658Y-71510900D01*
X163437551Y-71527404D01*
X163485742Y-71577994D01*
X163499500Y-71634762D01*
X163499500Y-84375500D01*
X163479815Y-84442539D01*
X163427011Y-84488294D01*
X163375500Y-84499500D01*
X150047280Y-84499500D01*
X150028610Y-84498086D01*
X150021917Y-84497066D01*
X150010219Y-84495285D01*
X150010218Y-84495285D01*
X149994661Y-84497013D01*
X149979104Y-84498742D01*
X149965412Y-84499500D01*
X149934105Y-84499500D01*
X149916124Y-84504318D01*
X149897729Y-84507783D01*
X149879244Y-84509836D01*
X149879236Y-84509839D01*
X149850079Y-84521229D01*
X149837059Y-84525502D01*
X149806816Y-84533606D01*
X149806815Y-84533607D01*
X149790692Y-84542915D01*
X149773826Y-84551021D01*
X149756492Y-84557793D01*
X149731266Y-84576350D01*
X149719794Y-84583848D01*
X149692686Y-84599499D01*
X149679526Y-84612659D01*
X149665335Y-84624852D01*
X149650338Y-84635885D01*
X149630779Y-84660333D01*
X149621640Y-84670544D01*
X149599501Y-84692684D01*
X149599497Y-84692690D01*
X149590194Y-84708802D01*
X149579638Y-84724258D01*
X147796677Y-86952962D01*
X147739427Y-86993014D01*
X147699849Y-86999500D01*
X132624500Y-86999500D01*
X132557461Y-86979815D01*
X132511706Y-86927011D01*
X132500500Y-86875500D01*
X132500500Y-79999997D01*
X135184494Y-79999997D01*
X135184494Y-80000002D01*
X135204478Y-80228429D01*
X135204479Y-80228436D01*
X135263827Y-80449925D01*
X135263828Y-80449927D01*
X135263829Y-80449930D01*
X135360738Y-80657753D01*
X135492264Y-80845591D01*
X135654409Y-81007736D01*
X135842247Y-81139262D01*
X136050070Y-81236171D01*
X136271565Y-81295521D01*
X136434732Y-81309796D01*
X136499998Y-81315506D01*
X136500000Y-81315506D01*
X136500002Y-81315506D01*
X136557108Y-81310509D01*
X136728435Y-81295521D01*
X136949930Y-81236171D01*
X137157753Y-81139262D01*
X137345591Y-81007736D01*
X137507736Y-80845591D01*
X137639262Y-80657753D01*
X137736171Y-80449930D01*
X137795521Y-80228435D01*
X137815506Y-80000000D01*
X137815506Y-79999997D01*
X140184494Y-79999997D01*
X140184494Y-80000002D01*
X140204478Y-80228429D01*
X140204479Y-80228436D01*
X140263827Y-80449925D01*
X140263828Y-80449927D01*
X140263829Y-80449930D01*
X140360738Y-80657753D01*
X140492264Y-80845591D01*
X140654409Y-81007736D01*
X140842247Y-81139262D01*
X141050070Y-81236171D01*
X141271565Y-81295521D01*
X141434732Y-81309796D01*
X141499998Y-81315506D01*
X141500000Y-81315506D01*
X141500002Y-81315506D01*
X141557108Y-81310509D01*
X141728435Y-81295521D01*
X141949930Y-81236171D01*
X142157753Y-81139262D01*
X142345591Y-81007736D01*
X142507736Y-80845591D01*
X142639262Y-80657753D01*
X142736171Y-80449930D01*
X142795521Y-80228435D01*
X142815506Y-80000000D01*
X142795521Y-79771565D01*
X142736171Y-79550070D01*
X142639262Y-79342247D01*
X142507736Y-79154409D01*
X142345591Y-78992264D01*
X142157753Y-78860738D01*
X141949930Y-78763829D01*
X141949927Y-78763828D01*
X141949925Y-78763827D01*
X141728436Y-78704479D01*
X141728429Y-78704478D01*
X141500002Y-78684494D01*
X141499998Y-78684494D01*
X141271570Y-78704478D01*
X141271563Y-78704479D01*
X141050074Y-78763827D01*
X141050070Y-78763829D01*
X140842247Y-78860738D01*
X140654409Y-78992264D01*
X140654407Y-78992265D01*
X140654404Y-78992268D01*
X140492268Y-79154404D01*
X140360738Y-79342247D01*
X140263830Y-79550068D01*
X140263827Y-79550074D01*
X140204479Y-79771563D01*
X140204478Y-79771570D01*
X140184494Y-79999997D01*
X137815506Y-79999997D01*
X137795521Y-79771565D01*
X137736171Y-79550070D01*
X137639262Y-79342247D01*
X137507736Y-79154409D01*
X137345591Y-78992264D01*
X137157753Y-78860738D01*
X136949930Y-78763829D01*
X136949927Y-78763828D01*
X136949925Y-78763827D01*
X136728436Y-78704479D01*
X136728429Y-78704478D01*
X136500002Y-78684494D01*
X136499998Y-78684494D01*
X136271570Y-78704478D01*
X136271563Y-78704479D01*
X136050074Y-78763827D01*
X136050070Y-78763829D01*
X135842247Y-78860738D01*
X135654409Y-78992264D01*
X135654407Y-78992265D01*
X135654404Y-78992268D01*
X135492268Y-79154404D01*
X135360738Y-79342247D01*
X135263830Y-79550068D01*
X135263827Y-79550074D01*
X135204479Y-79771563D01*
X135204478Y-79771570D01*
X135184494Y-79999997D01*
X132500500Y-79999997D01*
X132500500Y-77999999D01*
X145894785Y-77999999D01*
X145894785Y-78000000D01*
X145913602Y-78203082D01*
X145969417Y-78399247D01*
X145969422Y-78399260D01*
X146060327Y-78581821D01*
X146183237Y-78744581D01*
X146333958Y-78881980D01*
X146333960Y-78881982D01*
X146418360Y-78934240D01*
X146507363Y-78989348D01*
X146697544Y-79063024D01*
X146898024Y-79100500D01*
X146898026Y-79100500D01*
X147101974Y-79100500D01*
X147101976Y-79100500D01*
X147302456Y-79063024D01*
X147492637Y-78989348D01*
X147666041Y-78881981D01*
X147816764Y-78744579D01*
X147901046Y-78632970D01*
X147957155Y-78591335D01*
X148026867Y-78586644D01*
X148088049Y-78620386D01*
X148098954Y-78632971D01*
X148183237Y-78744581D01*
X148333958Y-78881980D01*
X148333960Y-78881982D01*
X148418360Y-78934240D01*
X148507363Y-78989348D01*
X148697544Y-79063024D01*
X148898024Y-79100500D01*
X148898026Y-79100500D01*
X149101974Y-79100500D01*
X149101976Y-79100500D01*
X149302456Y-79063024D01*
X149492637Y-78989348D01*
X149666041Y-78881981D01*
X149816764Y-78744579D01*
X149901046Y-78632970D01*
X149957155Y-78591335D01*
X150026867Y-78586644D01*
X150088049Y-78620386D01*
X150098954Y-78632971D01*
X150183237Y-78744581D01*
X150333958Y-78881980D01*
X150333960Y-78881982D01*
X150418360Y-78934240D01*
X150507363Y-78989348D01*
X150697544Y-79063024D01*
X150898024Y-79100500D01*
X150898026Y-79100500D01*
X151101974Y-79100500D01*
X151101976Y-79100500D01*
X151302456Y-79063024D01*
X151492637Y-78989348D01*
X151666041Y-78881981D01*
X151816764Y-78744579D01*
X151901046Y-78632970D01*
X151957155Y-78591335D01*
X152026867Y-78586644D01*
X152088049Y-78620386D01*
X152098954Y-78632971D01*
X152183237Y-78744581D01*
X152333958Y-78881980D01*
X152333960Y-78881982D01*
X152418360Y-78934240D01*
X152507363Y-78989348D01*
X152697544Y-79063024D01*
X152898024Y-79100500D01*
X152898026Y-79100500D01*
X153101974Y-79100500D01*
X153101976Y-79100500D01*
X153302456Y-79063024D01*
X153492637Y-78989348D01*
X153666041Y-78881981D01*
X153816764Y-78744579D01*
X153901046Y-78632970D01*
X153957155Y-78591335D01*
X154026867Y-78586644D01*
X154088049Y-78620386D01*
X154098954Y-78632971D01*
X154183237Y-78744581D01*
X154333958Y-78881980D01*
X154333960Y-78881982D01*
X154418360Y-78934240D01*
X154507363Y-78989348D01*
X154697544Y-79063024D01*
X154898024Y-79100500D01*
X154898026Y-79100500D01*
X155101974Y-79100500D01*
X155101976Y-79100500D01*
X155302456Y-79063024D01*
X155492637Y-78989348D01*
X155666041Y-78881981D01*
X155816764Y-78744579D01*
X155867964Y-78676778D01*
X155903794Y-78629333D01*
X155959903Y-78587696D01*
X156011338Y-78580357D01*
X156062533Y-78583911D01*
X156625000Y-78021445D01*
X156625000Y-78049370D01*
X156650556Y-78144745D01*
X156699925Y-78230255D01*
X156769745Y-78300075D01*
X156855255Y-78349444D01*
X156950630Y-78375000D01*
X156978553Y-78375000D01*
X156419311Y-78934240D01*
X156507585Y-78988897D01*
X156697678Y-79062539D01*
X156898072Y-79100000D01*
X157101928Y-79100000D01*
X157302322Y-79062539D01*
X157492412Y-78988899D01*
X157492416Y-78988897D01*
X157580686Y-78934241D01*
X157580686Y-78934240D01*
X157021448Y-78375000D01*
X157049370Y-78375000D01*
X157144745Y-78349444D01*
X157230255Y-78300075D01*
X157300075Y-78230255D01*
X157349444Y-78144745D01*
X157375000Y-78049370D01*
X157375000Y-78021447D01*
X157937465Y-78583912D01*
X157988683Y-78580363D01*
X158056923Y-78595365D01*
X158096210Y-78629339D01*
X158137862Y-78684494D01*
X158183234Y-78744577D01*
X158183237Y-78744580D01*
X158333958Y-78881980D01*
X158333960Y-78881982D01*
X158418360Y-78934240D01*
X158507363Y-78989348D01*
X158697544Y-79063024D01*
X158898024Y-79100500D01*
X158898026Y-79100500D01*
X159101974Y-79100500D01*
X159101976Y-79100500D01*
X159302456Y-79063024D01*
X159492637Y-78989348D01*
X159666041Y-78881981D01*
X159816764Y-78744579D01*
X159939673Y-78581821D01*
X160030582Y-78399250D01*
X160086397Y-78203083D01*
X160105215Y-78000000D01*
X160086397Y-77796917D01*
X160030582Y-77600750D01*
X159939673Y-77418179D01*
X159816764Y-77255421D01*
X159816762Y-77255418D01*
X159666042Y-77118019D01*
X159654723Y-77111011D01*
X159645704Y-77105426D01*
X159599069Y-77053401D01*
X159587964Y-76984419D01*
X159615916Y-76920385D01*
X159645703Y-76894573D01*
X159666041Y-76881981D01*
X159735511Y-76818651D01*
X159816762Y-76744581D01*
X159816764Y-76744579D01*
X159939673Y-76581821D01*
X160030582Y-76399250D01*
X160086397Y-76203083D01*
X160105215Y-76000000D01*
X160086397Y-75796917D01*
X160030582Y-75600750D01*
X160030204Y-75599991D01*
X159986272Y-75511764D01*
X159939673Y-75418179D01*
X159816764Y-75255421D01*
X159816762Y-75255418D01*
X159666041Y-75118019D01*
X159666039Y-75118017D01*
X159492642Y-75010655D01*
X159492635Y-75010651D01*
X159303705Y-74937460D01*
X159302456Y-74936976D01*
X159101976Y-74899500D01*
X158898024Y-74899500D01*
X158697544Y-74936976D01*
X158697541Y-74936976D01*
X158697541Y-74936977D01*
X158507364Y-75010651D01*
X158507357Y-75010655D01*
X158333960Y-75118017D01*
X158333958Y-75118019D01*
X158183236Y-75255419D01*
X158096206Y-75370665D01*
X158040097Y-75412300D01*
X157988669Y-75419640D01*
X157937465Y-75416087D01*
X157375000Y-75978552D01*
X157375000Y-75950630D01*
X157349444Y-75855255D01*
X157300075Y-75769745D01*
X157230255Y-75699925D01*
X157144745Y-75650556D01*
X157049370Y-75625000D01*
X157021447Y-75625000D01*
X157580687Y-75065758D01*
X157492413Y-75011101D01*
X157492411Y-75011100D01*
X157302321Y-74937460D01*
X157101928Y-74900000D01*
X156898072Y-74900000D01*
X156697678Y-74937460D01*
X156507588Y-75011100D01*
X156507581Y-75011104D01*
X156419312Y-75065757D01*
X156419311Y-75065758D01*
X156978554Y-75625000D01*
X156950630Y-75625000D01*
X156855255Y-75650556D01*
X156769745Y-75699925D01*
X156699925Y-75769745D01*
X156650556Y-75855255D01*
X156625000Y-75950630D01*
X156625000Y-75978553D01*
X156062532Y-75416086D01*
X156011352Y-75419645D01*
X155943108Y-75404658D01*
X155903797Y-75370671D01*
X155816762Y-75255418D01*
X155666041Y-75118019D01*
X155666039Y-75118017D01*
X155492642Y-75010655D01*
X155492635Y-75010651D01*
X155303705Y-74937460D01*
X155302456Y-74936976D01*
X155101976Y-74899500D01*
X154898024Y-74899500D01*
X154697544Y-74936976D01*
X154697541Y-74936976D01*
X154697541Y-74936977D01*
X154507364Y-75010651D01*
X154507357Y-75010655D01*
X154333960Y-75118017D01*
X154333958Y-75118019D01*
X154183237Y-75255419D01*
X154098954Y-75367028D01*
X154042845Y-75408664D01*
X153973133Y-75413355D01*
X153911951Y-75379613D01*
X153901046Y-75367028D01*
X153849699Y-75299034D01*
X153816764Y-75255421D01*
X153803225Y-75243079D01*
X153666041Y-75118019D01*
X153666039Y-75118017D01*
X153492642Y-75010655D01*
X153492635Y-75010651D01*
X153303705Y-74937460D01*
X153302456Y-74936976D01*
X153101976Y-74899500D01*
X152898024Y-74899500D01*
X152697544Y-74936976D01*
X152697541Y-74936976D01*
X152697541Y-74936977D01*
X152507364Y-75010651D01*
X152507357Y-75010655D01*
X152333960Y-75118017D01*
X152333958Y-75118019D01*
X152183237Y-75255419D01*
X152098954Y-75367028D01*
X152042845Y-75408664D01*
X151973133Y-75413355D01*
X151911951Y-75379613D01*
X151901046Y-75367028D01*
X151849699Y-75299034D01*
X151816764Y-75255421D01*
X151803225Y-75243079D01*
X151666041Y-75118019D01*
X151666039Y-75118017D01*
X151492642Y-75010655D01*
X151492635Y-75010651D01*
X151303705Y-74937460D01*
X151302456Y-74936976D01*
X151101976Y-74899500D01*
X150898024Y-74899500D01*
X150697544Y-74936976D01*
X150697541Y-74936976D01*
X150697541Y-74936977D01*
X150507364Y-75010651D01*
X150507357Y-75010655D01*
X150333960Y-75118017D01*
X150333958Y-75118019D01*
X150183237Y-75255419D01*
X150098954Y-75367028D01*
X150042845Y-75408664D01*
X149973133Y-75413355D01*
X149911951Y-75379613D01*
X149901046Y-75367028D01*
X149849699Y-75299034D01*
X149816764Y-75255421D01*
X149803225Y-75243079D01*
X149666041Y-75118019D01*
X149666039Y-75118017D01*
X149492642Y-75010655D01*
X149492635Y-75010651D01*
X149303705Y-74937460D01*
X149302456Y-74936976D01*
X149101976Y-74899500D01*
X148898024Y-74899500D01*
X148697544Y-74936976D01*
X148697541Y-74936976D01*
X148697541Y-74936977D01*
X148507364Y-75010651D01*
X148507357Y-75010655D01*
X148333960Y-75118017D01*
X148333958Y-75118019D01*
X148183236Y-75255419D01*
X148179375Y-75259656D01*
X148177828Y-75258245D01*
X148129159Y-75294351D01*
X148059447Y-75299034D01*
X147998269Y-75265284D01*
X147980790Y-75243079D01*
X147942712Y-75181344D01*
X147818657Y-75057289D01*
X147818656Y-75057288D01*
X147669334Y-74965186D01*
X147502797Y-74910001D01*
X147502795Y-74910000D01*
X147400010Y-74899500D01*
X146599998Y-74899500D01*
X146599980Y-74899501D01*
X146497203Y-74910000D01*
X146497200Y-74910001D01*
X146330668Y-74965185D01*
X146330663Y-74965187D01*
X146181342Y-75057289D01*
X146057289Y-75181342D01*
X145965187Y-75330663D01*
X145965185Y-75330668D01*
X145940667Y-75404658D01*
X145910001Y-75497203D01*
X145910001Y-75497204D01*
X145910000Y-75497204D01*
X145899500Y-75599983D01*
X145899500Y-76400001D01*
X145899501Y-76400019D01*
X145910000Y-76502796D01*
X145910001Y-76502799D01*
X145940675Y-76595365D01*
X145965186Y-76669334D01*
X146011598Y-76744581D01*
X146057289Y-76818657D01*
X146181344Y-76942712D01*
X146247062Y-76983247D01*
X146293787Y-77035195D01*
X146305010Y-77104157D01*
X146277166Y-77168240D01*
X146265504Y-77180423D01*
X146183237Y-77255418D01*
X146060327Y-77418178D01*
X145969422Y-77600739D01*
X145969417Y-77600752D01*
X145913602Y-77796917D01*
X145894785Y-77999999D01*
X132500500Y-77999999D01*
X132500500Y-74999997D01*
X137684494Y-74999997D01*
X137684494Y-75000002D01*
X137704478Y-75228429D01*
X137704479Y-75228436D01*
X137763827Y-75449925D01*
X137763828Y-75449927D01*
X137763829Y-75449930D01*
X137860738Y-75657753D01*
X137992264Y-75845591D01*
X138154409Y-76007736D01*
X138342247Y-76139262D01*
X138550070Y-76236171D01*
X138771565Y-76295521D01*
X138934732Y-76309796D01*
X138999998Y-76315506D01*
X139000000Y-76315506D01*
X139000002Y-76315506D01*
X139057108Y-76310509D01*
X139228435Y-76295521D01*
X139449930Y-76236171D01*
X139657753Y-76139262D01*
X139845591Y-76007736D01*
X140007736Y-75845591D01*
X140139262Y-75657753D01*
X140236171Y-75449930D01*
X140295521Y-75228435D01*
X140315506Y-75000000D01*
X140295521Y-74771565D01*
X140236171Y-74550070D01*
X140139262Y-74342247D01*
X140007736Y-74154409D01*
X139845591Y-73992264D01*
X139657753Y-73860738D01*
X139449930Y-73763829D01*
X139449927Y-73763828D01*
X139449925Y-73763827D01*
X139228436Y-73704479D01*
X139228429Y-73704478D01*
X139000002Y-73684494D01*
X138999998Y-73684494D01*
X138771570Y-73704478D01*
X138771563Y-73704479D01*
X138550074Y-73763827D01*
X138550070Y-73763829D01*
X138342247Y-73860738D01*
X138154409Y-73992264D01*
X138154407Y-73992265D01*
X138154404Y-73992268D01*
X137992268Y-74154404D01*
X137860738Y-74342247D01*
X137763830Y-74550068D01*
X137763827Y-74550074D01*
X137704479Y-74771563D01*
X137704478Y-74771570D01*
X137684494Y-74999997D01*
X132500500Y-74999997D01*
X132500500Y-71634762D01*
X132520185Y-71567723D01*
X132572989Y-71521968D01*
X132630342Y-71510900D01*
X132635311Y-71511134D01*
X133563708Y-70582736D01*
X133660967Y-70716602D01*
X133783398Y-70839033D01*
X133917262Y-70936290D01*
X132986564Y-71866987D01*
X132986565Y-71866989D01*
X133211461Y-72030385D01*
X133211479Y-72030397D01*
X133476109Y-72175878D01*
X133476117Y-72175882D01*
X133756889Y-72287047D01*
X133756892Y-72287048D01*
X134049399Y-72362150D01*
X134348995Y-72399999D01*
X134349007Y-72400000D01*
X134650993Y-72400000D01*
X134651004Y-72399999D01*
X134950600Y-72362150D01*
X135243107Y-72287048D01*
X135243110Y-72287047D01*
X135523882Y-72175882D01*
X135523890Y-72175878D01*
X135788520Y-72030397D01*
X135788530Y-72030390D01*
X136013433Y-71866987D01*
X136013434Y-71866987D01*
X135082737Y-70936290D01*
X135216602Y-70839033D01*
X135339033Y-70716602D01*
X135436290Y-70582737D01*
X136364687Y-71511134D01*
X136445486Y-71413464D01*
X136607292Y-71158497D01*
X136607295Y-71158491D01*
X136735872Y-70885252D01*
X136735874Y-70885247D01*
X136829194Y-70598040D01*
X136885783Y-70301390D01*
X136885784Y-70301383D01*
X136904745Y-70000005D01*
X136904745Y-69999994D01*
X136885784Y-69698616D01*
X136885783Y-69698609D01*
X136829194Y-69401959D01*
X136735874Y-69114752D01*
X136735872Y-69114747D01*
X136607295Y-68841508D01*
X136607292Y-68841502D01*
X136445483Y-68586530D01*
X136364686Y-68488864D01*
X135436289Y-69417261D01*
X135339033Y-69283398D01*
X135216602Y-69160967D01*
X135082736Y-69063709D01*
X136013878Y-68132567D01*
X136027895Y-68065851D01*
X136076946Y-68016095D01*
X136137148Y-68000500D01*
X159862851Y-68000500D01*
X159929890Y-68020185D01*
G37*
%TD.AperFunction*%
%TA.AperFunction,Conductor*%
G36*
X132929890Y-68020185D02*
G01*
X132975645Y-68072989D01*
X132986187Y-68132634D01*
X133917262Y-69063709D01*
X133783398Y-69160967D01*
X133660967Y-69283398D01*
X133563709Y-69417262D01*
X132635310Y-68488863D01*
X132630340Y-68489098D01*
X132562448Y-68472593D01*
X132514257Y-68422002D01*
X132500500Y-68365236D01*
X132500500Y-68124500D01*
X132520185Y-68057461D01*
X132572989Y-68011706D01*
X132624500Y-68000500D01*
X132862851Y-68000500D01*
X132929890Y-68020185D01*
G37*
%TD.AperFunction*%
%TA.AperFunction,Conductor*%
G36*
X163442539Y-68020185D02*
G01*
X163488294Y-68072989D01*
X163499500Y-68124500D01*
X163499500Y-68365236D01*
X163479815Y-68432275D01*
X163427011Y-68478030D01*
X163369660Y-68489098D01*
X163364688Y-68488863D01*
X162436289Y-69417261D01*
X162339033Y-69283398D01*
X162216602Y-69160967D01*
X162082736Y-69063709D01*
X163013878Y-68132567D01*
X163027895Y-68065851D01*
X163076946Y-68016095D01*
X163137148Y-68000500D01*
X163375500Y-68000500D01*
X163442539Y-68020185D01*
G37*
%TD.AperFunction*%
%TD*%
M02*
